<!-- Created with Inkscape (http://www.inkscape.org/) -->
<svg xmlns:rdf="http://www.w3.org/1999/02/22-rdf-syntax-ns#" xmlns="http://www.w3.org/2000/svg" version="1.1" xmlns:cc="http://creativecommons.org/ns#" xmlns:dc="http://purl.org/dc/elements/1.1/" viewBox="0 0 119.6 96.14">
 <metadata>
  <rdf:RDF>
   <cc:Work rdf:about="">
    <dc:format>image/svg+xml</dc:format>
    <dc:type rdf:resource="http://purl.org/dc/dcmitype/StillImage"/>
    <dc:title/>
   </cc:Work>
  </rdf:RDF>
 </metadata>
 <g transform="translate(26.343809,-454.79348)">
  <path stroke-linejoin="miter" d="m3.829,537.6c20.93,1.004,51.68,2.619,68.49-0.522" stroke="#FFF" stroke-linecap="butt" stroke-miterlimit="4" stroke-dasharray="none" stroke-width="1.40810657" fill="none"/>
  <path stroke-linejoin="miter" d="m71.48,536.8c-3.67-7.094-5.209-22.48-0.6888-23.22" stroke="#FFF" stroke-linecap="butt" stroke-miterlimit="4" stroke-dasharray="none" stroke-width="2.11215949" fill="none"/>
  <path stroke-linejoin="miter" d="m4.98,537.5c25.16-4.589,50.15-13.5,65.42-23.06" stroke="#FFF" stroke-linecap="butt" stroke-miterlimit="4" stroke-dasharray="none" stroke-width="3.52026653" fill="none"/>
  <path stroke-linejoin="miter" d="m-0.788,509.3c14.01,2.32,54.37,5.086,70.8,4.413" stroke="#FFF" stroke-linecap="butt" stroke-miterlimit="4" stroke-dasharray="none" stroke-width="2.81621313" fill="none"/>
  <path d="m38.33,536.8a32.16,13.76,0,0,1,-64.31,0,32.16,13.76,0,1,1,64.31,0z" stroke="#FFF" stroke-miterlimit="4" stroke-dasharray="none" stroke-width="0.70405328" fill="#FFF"/>
  <path d="m19.84,509.6a20.39,8.728,0,0,1,-40.78,0,20.39,8.728,0,1,1,40.78,0z" stroke="#FFF" stroke-miterlimit="4" stroke-dasharray="none" stroke-width="0.70405328" fill="#FFF"/>
  <path d="m92.86,513.1a23.28,9.962,0,0,1,-46.55,0,23.28,9.962,0,1,1,46.55,0z" stroke="#FFF" stroke-miterlimit="4" stroke-dasharray="none" stroke-width="0.70405328" fill="#FFF"/>
  <path d="m85.95,538.2a14.63,6.26,0,0,1,-29.25,0,14.63,6.26,0,1,1,29.25,0z" stroke="#FFF" stroke-miterlimit="4" stroke-dasharray="none" stroke-width="0.70405328" fill="#FFF"/>
  <path d="m55.3,481.4,28.57,0-14.29,33.16z" fill="#FFF"/>
  <path d="m-75.93,74.5c0,6.351-5.148,11.5-11.5,11.5-6.351,0-11.5-5.148-11.5-11.5,0-6.351,5.148-11.5,11.5-11.5,6.351,0,11.5,5.148,11.5,11.5z" transform="translate(157.0125,399.86513)" stroke-dashoffset="0" stroke="#FFF" stroke-dasharray="none" stroke-miterlimit="4" stroke-width="10" fill="none"/>
  <path stroke-linejoin="miter" d="m3.829,534.6c20.93,1.004,51.68,2.619,68.49-0.522" stroke="#555" stroke-linecap="butt" stroke-miterlimit="4" stroke-dasharray="none" stroke-width="1.40810657" fill="none"/>
  <path stroke-linejoin="miter" d="m71.48,533.7c-3.67-7.094-5.209-22.48-0.6888-23.22" stroke="#555" stroke-linecap="butt" stroke-miterlimit="4" stroke-dasharray="none" stroke-width="2.11215949" fill="none"/>
  <path stroke-linejoin="miter" d="m4.98,534.4c25.16-4.589,50.15-13.5,65.42-23.06" stroke="#555" stroke-linecap="butt" stroke-miterlimit="4" stroke-dasharray="none" stroke-width="3.52026653" fill="none"/>
  <path stroke-linejoin="miter" d="m-0.788,506.3c14.01,2.32,54.37,5.086,70.8,4.413" stroke="#555" stroke-linecap="butt" stroke-miterlimit="4" stroke-dasharray="none" stroke-width="2.81621313" fill="none"/>
  <path d="m38.33,533.8a32.16,13.76,0,0,1,-64.31,0,32.16,13.76,0,1,1,64.31,0z" stroke="#FFF" stroke-miterlimit="4" stroke-dasharray="none" stroke-width="0.70405328" fill="#555"/>
  <path d="m19.84,506.5a20.39,8.728,0,0,1,-40.78,0,20.39,8.728,0,1,1,40.78,0z" stroke="#FFF" stroke-miterlimit="4" stroke-dasharray="none" stroke-width="0.70405328" fill="#555"/>
  <path d="m92.86,510a23.28,9.962,0,0,1,-46.55,0,23.28,9.962,0,1,1,46.55,0z" stroke="#FFF" stroke-miterlimit="4" stroke-dasharray="none" stroke-width="0.70405328" fill="#555"/>
  <path d="m55.3,481.4,28.57,0-14.29,33.16z" fill="#FFF"/>
  <path d="m85.95,535.1a14.63,6.26,0,0,1,-29.25,0,14.63,6.26,0,1,1,29.25,0z" stroke="#FFF" stroke-miterlimit="4" stroke-dasharray="none" stroke-width="0.70405328" fill="#555"/>
  <path d="m55.3,478.3,28.57,0-14.29,33.16z" fill="#B22"/>
  <path d="m-75.93,74.5c0,6.351-5.148,11.5-11.5,11.5-6.351,0-11.5-5.148-11.5-11.5,0-6.351,5.148-11.5,11.5-11.5,6.351,0,11.5,5.148,11.5,11.5z" transform="translate(157.0125,396.79348)" stroke-dashoffset="0" stroke="#B22" stroke-dasharray="none" stroke-miterlimit="4" stroke-width="10" fill="none"/>
 </g>
</svg>
